<?xml version="1.0" encoding="UTF-8"?>
<svg version="1.1" xmlns="http://www.w3.org/2000/svg" width="330" height="330">
<path d="M0 0 C8.93992777 1.19049289 16.31237224 5.73393813 23.109375 11.4140625 C23.955 12.0121875 24.800625 12.6103125 25.671875 13.2265625 C37.56318753 23.89825323 43.3434864 39.03847058 46.109375 54.4140625 C46.20703125 57.37890625 46.20703125 57.37890625 46.109375 59.4140625 C47.07875 59.48882812 48.048125 59.56359375 49.046875 59.640625 C74.19104193 61.95553508 92.70853667 74.51902559 109.23046875 93.05078125 C110.9908428 95.26497315 112.2857619 97.42387515 113.609375 99.9140625 C115.03718449 102.41651305 115.70790257 103.25047441 118.41015625 104.3515625 C120.65282972 104.85380975 122.82137771 105.21467276 125.109375 105.4140625 C125.921875 108.6640625 125.921875 108.6640625 126.109375 112.4140625 C124.109375 114.9140625 124.109375 114.9140625 121.109375 116.4140625 C117.609375 116.5390625 117.609375 116.5390625 114.109375 115.4140625 C112.7265625 113.99609375 112.7265625 113.99609375 111.484375 112.3515625 C109.43611447 109.12953072 109.43611447 109.12953072 106.296875 109.0390625 C105.2140625 109.2246875 105.2140625 109.2246875 104.109375 109.4140625 C105.346875 110.0946875 105.346875 110.0946875 106.609375 110.7890625 C107.846875 111.5934375 107.846875 111.5934375 109.109375 112.4140625 C109.109375 113.0740625 109.109375 113.7340625 109.109375 114.4140625 C108.30306641 114.6406958 107.49675781 114.8673291 106.66601562 115.10083008 C103.63854089 115.9535572 100.61196389 116.80938497 97.5859375 117.66723633 C95.64649768 118.21605755 93.70606986 118.76138351 91.765625 119.30664062 C84.01413508 121.49278866 84.01413508 121.49278866 76.421875 124.1640625 C73.05972874 125.43279694 70.66778578 125.68094331 67.109375 125.4140625 C66.9546875 126.868125 66.9546875 126.868125 66.796875 128.3515625 C66.16307621 132.90000089 64.66181673 137.10823354 63.109375 141.4140625 C64.24375 141.4965625 65.378125 141.5790625 66.546875 141.6640625 C73.9014447 142.60294374 80.47788367 145.47996423 85.109375 151.4140625 C85.921875 154.2265625 85.921875 154.2265625 86.109375 156.4140625 C82.7527419 158.6518179 82.21697928 158.59605803 78.421875 158.1015625 C77.54402344 157.99328125 76.66617187 157.885 75.76171875 157.7734375 C74.88644531 157.65484375 74.01117188 157.53625 73.109375 157.4140625 C71.56777656 157.22600234 70.02611721 157.03844034 68.484375 156.8515625 C67.370625 156.7071875 66.256875 156.5628125 65.109375 156.4140625 C65.56828125 156.76597656 66.0271875 157.11789063 66.5 157.48046875 C70.94982506 161.06089521 73.73588304 164.19238019 76.109375 169.4140625 C76.359375 172.3515625 76.359375 172.3515625 76.109375 174.4140625 C70.35187639 175.96415828 67.59726215 175.43368435 62.359375 172.5390625 C56.49067127 169.37784693 50.85183175 167.22722641 44.109375 168.4140625 C42.13583967 170.0823233 41.13690962 171.54944935 39.9765625 173.84765625 C39.69039062 174.36457031 39.40421875 174.88148438 39.109375 175.4140625 C38.449375 175.4140625 37.789375 175.4140625 37.109375 175.4140625 C36.779375 176.4040625 36.449375 177.3940625 36.109375 178.4140625 C33.18558001 180.82189367 31.67427289 181.44054209 27.859375 181.26171875 C23.64577641 180.3092699 20.70246179 178.54747634 17.234375 176.1015625 C5.48983972 168.23004374 -6.4751363 163.85563129 -20.890625 165.4140625 C-31.18403131 167.58109541 -40.81161524 171.42770024 -46.890625 180.4140625 C-44.59167905 179.27011584 -42.30112195 178.11210238 -40.015625 176.94140625 C-38.984375 176.41675781 -37.953125 175.89210937 -36.890625 175.3515625 C-35.859375 174.82433594 -34.828125 174.29710937 -33.765625 173.75390625 C-24.08190481 169.24097687 -11.19765502 170.18539003 -1.265625 173.5390625 C8.30185327 177.49878183 13.86985318 181.86149188 18.109375 191.4140625 C20.56666413 198.7859299 19.14077565 206.4052922 16.109375 213.4140625 C11.59976934 221.38341853 5.6934795 227.35799283 -1.890625 232.4140625 C-1.32666016 232.45370117 -0.76269531 232.49333984 -0.18164062 232.53417969 C2.41698066 232.72678839 5.01283377 232.94525285 7.609375 233.1640625 C8.49625 233.2259375 9.383125 233.2878125 10.296875 233.3515625 C17.70393032 234.0051262 23.67246484 235.55069306 28.609375 241.3515625 C30.14579296 244.48841583 30.24726517 246.01851708 30.109375 249.4140625 C12.5498937 249.46086443 -5.00956803 249.49609141 -22.56909752 249.51768684 C-30.72300685 249.52798224 -38.87687733 249.54200924 -47.03076172 249.56494141 C-54.14092747 249.5849286 -61.25106508 249.59779155 -68.36125815 249.60223949 C-72.12310054 249.60483787 -75.88486243 249.6109087 -79.64667892 249.62552261 C-83.19413295 249.63919091 -86.74147402 249.64326664 -90.28895187 249.64027786 C-92.19787799 249.64108246 -94.10679207 249.65179539 -96.01568604 249.66290283 C-111.80895107 249.62540871 -124.10708311 245.84647818 -135.7109375 234.6875 C-148.6882722 221.15200037 -153.64157435 203.50120533 -153.328125 185.046875 C-152.87035902 178.66456089 -151.54359903 172.38643274 -150.390625 166.1015625 C-145.96643663 144.03631557 -145.96643663 144.03631557 -152.890625 123.4140625 C-153.220625 122.4240625 -153.550625 121.4340625 -153.890625 120.4140625 C-155.60582247 119.38754877 -155.60582247 119.38754877 -157.890625 118.4140625 C-158.87933594 117.77855469 -159.86804688 117.14304687 -160.88671875 116.48828125 C-165.44569133 113.8635443 -170.19615819 113.06557431 -175.328125 112.1640625 C-176.25044922 111.99132812 -177.17277344 111.81859375 -178.12304688 111.640625 C-180.37704424 111.22019026 -182.63250932 110.81166985 -184.890625 110.4140625 C-185.220625 109.0940625 -185.550625 107.7740625 -185.890625 106.4140625 C-181.98838589 103.7951801 -177.7877694 104.06909915 -173.265625 104.1015625 C-172.05338257 104.11002197 -172.05338257 104.11002197 -170.81665039 104.11865234 C-159.72317655 104.3437987 -150.9913291 107.44838405 -142.94921875 115.3125 C-134.90959191 124.6544422 -131.76963655 137.06373078 -131.7578125 149.17578125 C-131.75652344 150.46033203 -131.75523437 151.74488281 -131.75390625 153.06835938 C-131.75600098 153.732146 -131.7580957 154.39593262 -131.76025391 155.07983398 C-131.76556402 157.07860735 -131.75979943 159.07740015 -131.75390625 161.07617188 C-131.76057805 167.7579767 -131.96791745 174.3214368 -132.65478516 180.9675293 C-133.74605856 192.28807873 -134.44610751 204.79486896 -127.265625 214.2890625 C-121.64223858 220.14733239 -114.59856422 221.96202187 -106.6875 222.46484375 C-102.2833469 222.38488008 -98.13939149 221.5292485 -93.890625 220.4140625 C-92.65814783 216.49977098 -92.62088179 212.52280175 -92.4609375 208.45703125 C-92.38715352 206.85219349 -92.31291931 205.24737639 -92.23828125 203.64257812 C-92.12601395 201.13989215 -92.01705731 198.63721848 -91.91650391 196.1340332 C-90.77059334 168.14866135 -90.77059334 168.14866135 -84.078125 155.9765625 C-83.7277417 155.30971436 -83.3773584 154.64286621 -83.01635742 153.95581055 C-79.21596828 146.87740168 -74.78111571 140.90292884 -68.890625 135.4140625 C-68.23964844 134.74632812 -67.58867187 134.07859375 -66.91796875 133.390625 C-51.22186195 118.03516827 -29.82314908 113.44341098 -8.71142578 111.02050781 C-3.97904476 110.40909644 -0.71332035 109.9798567 3.26171875 107.24609375 C5.47124774 103.85939499 6.21620603 101.075593 6.921875 97.1015625 C7.15519531 95.84730469 7.38851562 94.59304687 7.62890625 93.30078125 C7.78746094 92.34816406 7.94601563 91.39554687 8.109375 90.4140625 C7.37525391 90.26372559 6.64113281 90.11338867 5.88476562 89.95849609 C-37.24914665 81.02515766 -37.24914665 81.02515766 -47.953125 69.4140625 C-50.06195145 66.14878284 -50.890625 64.29604329 -50.890625 60.4140625 C-48.78434298 54.09521643 -44.3345573 50.26216927 -38.59765625 47.18359375 C-23.31587763 40.45378027 -7.08899201 44.13435996 8.109375 49.4140625 C7.3359375 48.4446875 6.5625 47.4753125 5.765625 46.4765625 C-13.33857042 22.07639781 -13.33857042 22.07639781 -12.890625 8.4140625 C-10.94134617 0.94182697 -7.20893848 -0.20978392 0 0 Z M74.921875 85.5390625 C72.8209094 87.34727023 72.8209094 87.34727023 72.671875 90.4140625 C72.91956167 93.33544889 72.91956167 93.33544889 74.171875 95.3515625 C77.32504324 97.08071928 79.73445755 96.2731324 83.109375 95.4140625 C85.37079758 92.66711725 85.37079758 92.66711725 84.984375 89.9140625 C83.92304523 86.88169174 82.88762314 85.96661293 80.109375 84.4140625 C77.14404664 84.18538849 77.14404664 84.18538849 74.921875 85.5390625 Z " fill="#586AF0" transform="translate(195.890625,18.5859375)"/>
<path d="M0 0 C1.43859375 0.00580078 1.43859375 0.00580078 2.90625 0.01171875 C5.5 0.3125 5.5 0.3125 8.5 2.3125 C5.53 1.8175 5.53 1.8175 2.5 1.3125 C2.5 1.9725 2.5 2.6325 2.5 3.3125 C-1.16666667 3.3125 -4.83333333 3.3125 -8.5 3.3125 C-5.95054848 0.0481685 -4.04282137 -0.0706407 0 0 Z " fill="#7784F0" transform="translate(193.5,18.6875)"/>
<path d="M0 0 C5.94 0 11.88 0 18 0 C18 0.33 18 0.66 18 1 C14.68885166 2.12880057 11.41021743 3.21302675 8 4 C8 3.34 8 2.68 8 2 C5.36 1.67 2.72 1.34 0 1 C0 0.67 0 0.34 0 0 Z " fill="#7282F0" transform="translate(169,190)"/>
<path d="M0 0 C3.375 -0.125 3.375 -0.125 7 0 C7.66 0.66 8.32 1.32 9 2 C6.04335481 3.4783226 3.25770263 3.06032783 0 3 C0 2.01 0 1.02 0 0 Z " fill="#4F60E0" transform="translate(262,140)"/>
</svg>
