<?xml version="1.0" encoding="UTF-8"?>
<!DOCTYPE svg PUBLIC "-//W3C//DTD SVG 1.1//EN" "http://www.w3.org/Graphics/SVG/1.1/DTD/svg11.dtd">
<svg xmlns="http://www.w3.org/2000/svg" version="1.1" width="882px" height="882px" style="shape-rendering:geometricPrecision; text-rendering:geometricPrecision; image-rendering:optimizeQuality; fill-rule:evenodd; clip-rule:evenodd" xmlns:xlink="http://www.w3.org/1999/xlink">
<g><path style="opacity:1" fill="#f6f8f8" d="M 442.5,161.5 C 449.194,163.748 456.194,165.081 463.5,165.5C 497.828,176.326 521.328,198.659 534,232.5C 538.102,244.177 540.602,256.177 541.5,268.5C 541.5,271.5 541.5,274.5 541.5,277.5C 547.042,278.228 552.042,277.228 556.5,274.5C 557.167,274.5 557.833,274.5 558.5,274.5C 563.731,274.556 568.731,273.889 573.5,272.5C 574.5,272.5 575.5,272.5 576.5,272.5C 577.248,263.657 577.915,254.657 578.5,245.5C 579.018,242.977 580.352,240.977 582.5,239.5C 580.699,236.465 580.032,233.131 580.5,229.5C 587.394,200.096 604.727,179.263 632.5,167C 673.764,151.984 709.931,159.817 741,190.5C 755.828,208.142 764.328,228.475 766.5,251.5C 766.666,258.508 766.5,265.508 766,272.5C 765.822,275.542 764.988,278.375 763.5,281C 764.148,282.44 764.481,283.94 764.5,285.5C 762.372,296.431 758.538,306.764 753,316.5C 747.548,325.082 741.381,333.082 734.5,340.5C 756.818,372.492 771.484,407.825 778.5,446.5C 780.352,447.518 782.019,448.851 783.5,450.5C 786.076,449.117 785.742,448.283 782.5,448C 784.259,446.992 785.426,445.492 786,443.5C 787.268,443.384 788.602,443.051 790,442.5C 791.704,446.741 793.538,450.907 795.5,455C 794.552,455.483 793.552,455.649 792.5,455.5C 792.5,456.5 792.5,457.5 792.5,458.5C 789.829,461.161 786.829,463.494 783.5,465.5C 782.921,469.096 782.921,472.762 783.5,476.5C 789.441,475.366 795.441,474.699 801.5,474.5C 810.238,474.888 818.571,473.554 826.5,470.5C 827.5,470.5 828.5,470.5 829.5,470.5C 835.161,470.093 840.828,469.76 846.5,469.5C 848.752,469.916 850.252,471.249 851,473.5C 852.691,480.295 850.191,484.462 843.5,486C 838.863,486.829 834.196,487.329 829.5,487.5C 824.381,486.897 819.715,487.564 815.5,489.5C 804.905,491.158 794.239,492.658 783.5,494C 781.862,497.33 781.362,500.83 782,504.5C 799.816,511.996 817.65,519.496 835.5,527C 842.167,532.333 842.167,537.667 835.5,543C 832.833,543.667 830.167,543.667 827.5,543C 810.5,535.833 793.5,528.667 776.5,521.5C 761.405,555.716 736.405,579.549 701.5,593C 710.135,605.095 717.635,617.928 724,631.5C 732.936,652.825 729.103,671.325 712.5,687C 692.757,696.699 673.757,695.366 655.5,683C 649.013,676.679 642.679,670.179 636.5,663.5C 621.245,672.461 605.245,679.794 588.5,685.5C 588.789,715.597 573.956,731.931 544,734.5C 533.109,734.236 522.942,731.402 513.5,726C 501.037,717.683 487.871,710.516 474,704.5C 469.696,710.407 465.363,716.407 461,722.5C 450.408,733.717 437.575,741.217 422.5,745C 411.302,747.719 399.969,749.552 388.5,750.5C 384.323,768.354 376.323,784.187 364.5,798C 350,809.835 334.333,811.835 317.5,804C 309.122,797.398 306.289,788.898 309,778.5C 317.074,757.531 323.907,736.197 329.5,714.5C 318.295,717.04 306.962,718.874 295.5,720C 274.18,721.052 252.847,721.718 231.5,722C 225.962,736.277 219.462,750.111 212,763.5C 196.487,785.42 176.32,791.253 151.5,781C 142.924,774.608 139.424,766.108 141,755.5C 152.978,728.566 163.978,701.233 174,673.5C 177.912,664.846 183.412,657.346 190.5,651C 199.665,644.916 208.998,639.083 218.5,633.5C 219.452,631.955 219.785,630.288 219.5,628.5C 219.511,626.453 219.844,624.453 220.5,622.5C 219.345,620.105 218.345,617.771 217.5,615.5C 216.056,608.957 215.39,602.291 215.5,595.5C 215.666,588.159 215.5,580.826 215,573.5C 213.644,572.62 212.144,572.286 210.5,572.5C 158.484,558.649 123.65,526.316 106,475.5C 95.6022,437.241 96.6022,399.241 109,361.5C 116.546,338.194 124.879,315.194 134,292.5C 144.215,265.667 147.881,238.001 145,209.5C 139.562,172.099 120.396,144.266 87.5,126C 79.5,122 71.5,118 63.5,114C 54.758,106.432 53.258,97.5984 59,87.5C 61.559,84.4686 64.7257,82.3019 68.5,81C 74.8907,80.2422 81.2241,80.5755 87.5,82C 159.098,105.13 196.098,154.463 198.5,230C 197.869,252.951 194.369,275.451 188,297.5C 178.207,323.546 169.207,349.879 161,376.5C 154.155,403.497 155.155,430.164 164,456.5C 175.376,481.7 194.543,497.7 221.5,504.5C 241.479,432.525 285.479,381.191 353.5,350.5C 315.885,308.582 310.051,262.582 336,212.5C 361.595,175.289 397.095,158.289 442.5,161.5 Z"/></g>
<g><path style="opacity:1" fill="#bebfc1" d="M 442.5,161.5 C 449.81,161.83 456.81,163.163 463.5,165.5C 456.194,165.081 449.194,163.748 442.5,161.5 Z"/></g>
<g><path style="opacity:1" fill="#d5f7fd" d="M 692.5,183.5 C 678.986,180.347 665.319,179.68 651.5,181.5C 651.611,180.883 651.944,180.383 652.5,180C 663.173,178.083 673.84,178.083 684.5,180C 687.666,180.322 690.333,181.489 692.5,183.5 Z"/></g>
<g><path style="opacity:1" fill="#c6f6fd" d="M 420.5,181.5 C 428.323,180.344 436.323,180.177 444.5,181C 448.833,181.488 452.833,182.655 456.5,184.5C 444.627,182.103 432.627,181.103 420.5,181.5 Z"/></g>
<g><path style="opacity:1" fill="#84d8f1" d="M 694.5,184.5 C 723.635,196.49 740.802,218.156 746,249.5C 749.541,285.935 736.375,314.435 706.5,335C 705.177,335.816 704.511,336.983 704.5,338.5C 687.592,321.286 667.925,307.953 645.5,298.5C 640.177,274.303 639.344,249.969 643,225.5C 648.247,207.919 659.414,195.752 676.5,189C 682.619,187.449 688.619,185.949 694.5,184.5 Z"/></g>
<g><path style="opacity:1" fill="#0aa4e7" d="M 692.5,183.5 C 692.842,184.338 693.508,184.672 694.5,184.5C 688.619,185.949 682.619,187.449 676.5,189C 659.414,195.752 648.247,207.919 643,225.5C 639.344,249.969 640.177,274.303 645.5,298.5C 667.925,307.953 687.592,321.286 704.5,338.5C 710.516,345.186 716.182,352.186 721.5,359.5C 732.367,376.234 741.367,393.9 748.5,412.5C 749.932,417.67 751.599,422.67 753.5,427.5C 756.146,439.42 758.479,451.42 760.5,463.5C 760.36,465.03 759.693,466.03 758.5,466.5C 746.142,457.001 733.142,456.168 719.5,464C 706.784,472.946 701.95,485.112 705,500.5C 711.933,520.06 725.766,527.893 746.5,524C 748.618,522.655 750.618,522.155 752.5,522.5C 738.12,547.882 717.12,565.215 689.5,574.5C 674.583,579.284 659.25,582.118 643.5,583C 642.944,583.383 642.611,583.883 642.5,584.5C 638.847,585.786 637.18,588.453 637.5,592.5C 637.249,596.503 638.916,599.336 642.5,601C 654.701,601.88 666.701,600.713 678.5,597.5C 690.035,612.559 699.535,628.892 707,646.5C 709.18,664.985 701.013,673.818 682.5,673C 672.588,670.125 664.422,664.625 658,656.5C 653.5,650.667 649,644.833 644.5,639C 639.389,637.889 634.722,638.889 630.5,642C 615.173,652.413 598.673,660.58 581,666.5C 571.602,654.081 561.935,641.747 552,629.5C 549.963,627.294 547.797,625.294 545.5,623.5C 539.756,618.962 534.589,619.629 530,625.5C 529.195,628.696 529.362,631.696 530.5,634.5C 541.143,647.987 551.643,661.654 562,675.5C 568.299,684.817 568.966,694.484 564,704.5C 556.508,712.552 547.342,715.385 536.5,713C 525.148,708.653 514.481,702.987 504.5,696C 486.765,688.97 470.432,679.637 455.5,668C 445.298,658.622 437.632,647.455 432.5,634.5C 423.231,627.564 417.231,629.731 414.5,641C 418.122,652.078 423.456,662.245 430.5,671.5C 431.086,673.84 432.086,676.007 433.5,678C 432.737,678.944 431.737,679.444 430.5,679.5C 421.922,677.801 413.255,677.134 404.5,677.5C 394.035,676.886 383.702,675.386 373.5,673C 370.167,672.333 366.833,672.333 363.5,673C 353.524,680.484 342.857,686.651 331.5,691.5C 323.996,693.96 316.329,695.626 308.5,696.5C 306.599,696.567 304.766,696.233 303,695.5C 300.322,696.671 297.489,697.338 294.5,697.5C 269.861,699.138 245.194,699.805 220.5,699.5C 210.512,695.689 202.012,689.689 195,681.5C 194.517,680.552 194.351,679.552 194.5,678.5C 196.783,673.776 200.117,669.943 204.5,667C 214.332,659.914 224.666,653.581 235.5,648C 236.381,647.292 237.047,646.458 237.5,645.5C 239.867,643.433 241.2,640.766 241.5,637.5C 238.585,620.262 236.585,602.929 235.5,585.5C 234.795,565.722 235.795,546.055 238.5,526.5C 241.679,507.769 247.012,489.769 254.5,472.5C 272.175,436.323 297.842,407.156 331.5,385C 340.243,379.962 349.243,375.462 358.5,371.5C 363.993,368.613 369.827,366.613 376,365.5C 384.024,369.758 392.524,372.758 401.5,374.5C 411.148,377.622 421.148,378.788 431.5,378C 436.435,377.233 439.102,374.4 439.5,369.5C 440.434,368.432 440.768,367.099 440.5,365.5C 456.157,362.004 467.99,353.337 476,339.5C 489.807,306.746 488.141,274.746 471,243.5C 447.934,209.962 416.101,196.295 375.5,202.5C 374.584,202.457 373.917,202.124 373.5,201.5C 387.253,190.575 402.92,183.908 420.5,181.5C 432.627,181.103 444.627,182.103 456.5,184.5C 491.125,196.46 511.792,220.46 518.5,256.5C 519.456,271.265 520.956,285.932 523,300.5C 523.5,301 524,301.5 524.5,302C 532.791,303.172 540.458,301.672 547.5,297.5C 562.391,293.159 577.725,290.992 593.5,291C 595.751,290.252 597.084,288.752 597.5,286.5C 597.555,272.681 597.722,258.681 598,244.5C 599.106,238.805 600.272,233.139 601.5,227.5C 608.038,211.771 618.371,199.104 632.5,189.5C 638.91,186.814 645.243,184.147 651.5,181.5C 665.319,179.68 678.986,180.347 692.5,183.5 Z"/></g>
<g><path style="opacity:1" fill="#84d8f0" d="M 439.5,369.5 C 439.545,364.426 437.212,360.926 432.5,359C 427.468,358.664 422.468,358.164 417.5,357.5C 381.507,352.338 357.34,332.671 345,298.5C 333.909,259.823 343.409,227.489 373.5,201.5C 373.917,202.124 374.584,202.457 375.5,202.5C 416.101,196.295 447.934,209.962 471,243.5C 488.141,274.746 489.807,306.746 476,339.5C 467.99,353.337 456.157,362.004 440.5,365.5C 440.768,367.099 440.434,368.432 439.5,369.5 Z"/></g>
<g><path style="opacity:1" fill="#e3fbfd" d="M 632.5,189.5 C 618.371,199.104 608.038,211.771 601.5,227.5C 601.187,224.753 601.52,222.086 602.5,219.5C 604.276,217.061 605.61,214.394 606.5,211.5C 608.773,210.625 609.773,208.958 609.5,206.5C 612.47,206.254 613.803,204.588 613.5,201.5C 614.5,201.5 615.5,201.5 616.5,201.5C 616.343,200.127 616.51,198.793 617,197.5C 617.333,197.833 617.667,198.167 618,198.5C 618.333,197.5 618.667,196.5 619,195.5C 619.333,195.833 619.667,196.167 620,196.5C 620.333,195.167 620.667,193.833 621,192.5C 621.725,193.059 622.558,193.392 623.5,193.5C 626.233,191.446 629.233,190.113 632.5,189.5 Z"/></g>
<g><path style="opacity:1" fill="#d0d2d3" d="M 580.5,229.5 C 580.032,233.131 580.699,236.465 582.5,239.5C 580.352,240.977 579.018,242.977 578.5,245.5C 577.915,254.657 577.248,263.657 576.5,272.5C 576.334,264.16 576.5,255.827 577,247.5C 577.431,241.223 578.598,235.223 580.5,229.5 Z"/></g>
<g><path style="opacity:1" fill="#ddfafe" d="M 601.5,227.5 C 600.272,233.139 599.106,238.805 598,244.5C 597.722,258.681 597.555,272.681 597.5,286.5C 594.032,266.759 594.866,247.426 600,228.5C 600.383,227.944 600.883,227.611 601.5,227.5 Z"/></g>
<g><path style="opacity:0.757" fill="#bbbcbe" d="M 573.5,272.5 C 568.731,273.889 563.731,274.556 558.5,274.5C 563.269,273.111 568.269,272.444 573.5,272.5 Z"/></g>
<g><path style="opacity:1" fill="#bdbdbc" d="M 541.5,268.5 C 542.473,270.948 542.806,273.615 542.5,276.5C 547.186,275.963 551.853,275.296 556.5,274.5C 552.042,277.228 547.042,278.228 541.5,277.5C 541.5,274.5 541.5,271.5 541.5,268.5 Z"/></g>
<g><path style="opacity:1" fill="#bcbcbc" d="M 766.5,251.5 C 767.655,258.655 767.822,265.988 767,273.5C 766.665,277.736 765.832,281.736 764.5,285.5C 764.481,283.94 764.148,282.44 763.5,281C 764.988,278.375 765.822,275.542 766,272.5C 766.5,265.508 766.666,258.508 766.5,251.5 Z"/></g>
<g><path style="opacity:1" fill="#40a8d8" d="M 518.5,256.5 C 519.856,259.577 520.689,262.91 521,266.5C 521.768,277.551 522.768,288.551 524,299.5C 525.739,300.894 527.739,301.561 530,301.5C 535.828,300.084 541.661,298.751 547.5,297.5C 540.458,301.672 532.791,303.172 524.5,302C 524,301.5 523.5,301 523,300.5C 520.956,285.932 519.456,271.265 518.5,256.5 Z"/></g>
<g><path style="opacity:1" fill="#dcfafe" d="M 417.5,357.5 C 422.468,358.164 427.468,358.664 432.5,359C 437.212,360.926 439.545,364.426 439.5,369.5C 439.102,374.4 436.435,377.233 431.5,378C 421.148,378.788 411.148,377.622 401.5,374.5C 410.173,375.013 418.84,375.68 427.5,376.5C 437.346,375.981 440.012,371.314 435.5,362.5C 429.394,360.526 423.394,358.859 417.5,357.5 Z"/></g>
<g><path style="opacity:1" fill="#d9f9fd" d="M 401.5,374.5 C 392.524,372.758 384.024,369.758 376,365.5C 369.827,366.613 363.993,368.613 358.5,371.5C 359.987,369.395 361.987,367.728 364.5,366.5C 368,365.5 371.5,364.5 375,363.5C 383.843,367.061 392.676,370.728 401.5,374.5 Z"/></g>
<g><path style="opacity:1" fill="#18a4e2" d="M 712.5,416.5 C 712.561,419.488 711.895,422.321 710.5,425C 710.354,427.188 711.354,428.521 713.5,429C 711.447,430.08 709.28,430.914 707,431.5C 706.586,431.043 706.086,430.709 705.5,430.5C 703.98,431.85 703.313,433.183 703.5,434.5C 702.126,433.289 700.626,432.289 699,431.5C 691.065,434.249 683.231,433.916 675.5,430.5C 672.797,427.462 669.797,424.795 666.5,422.5C 665.828,418.161 664.328,414.161 662,410.5C 661.667,406.167 661.333,401.833 661,397.5C 659.933,396.809 658.766,396.309 657.5,396C 658.119,394.165 658.286,391.999 658,389.5C 655.469,391.965 653.969,394.965 653.5,398.5C 652.05,397.345 651.05,395.845 650.5,394C 651.245,391.429 651.579,388.929 651.5,386.5C 652.281,387.729 652.781,389.062 653,390.5C 653.615,388.884 654.615,387.551 656,386.5C 656.333,387.167 656.667,387.833 657,388.5C 658.226,384.375 657.393,380.875 654.5,378C 654.833,377.5 655.167,377 655.5,376.5C 658.061,379.147 659.561,378.48 660,374.5C 660.827,375.662 661.66,376.829 662.5,378C 660.987,379.879 660.321,382.046 660.5,384.5C 663.238,385.035 665.072,384.035 666,381.5C 666.414,381.957 666.914,382.291 667.5,382.5C 668.85,381.05 670.516,380.383 672.5,380.5C 672.5,379.5 672.5,378.5 672.5,377.5C 679.64,375.923 686.973,375.09 694.5,375C 696.5,374.333 698.5,373.667 700.5,373C 699.112,372.111 699.278,371.611 701,371.5C 702.412,372.923 703.579,372.756 704.5,371C 703.833,369 703.167,367 702.5,365C 704.868,364.144 707.202,363.31 709.5,362.5C 709.52,364.143 708.853,365.476 707.5,366.5C 708.167,367.833 709.167,368.833 710.5,369.5C 712.579,366.781 714.745,364.115 717,361.5C 718.236,362.399 719.07,363.566 719.5,365C 718.839,367.464 718.339,369.964 718,372.5C 717.667,371.833 717.333,371.167 717,370.5C 715.667,371.833 714.333,371.833 713,370.5C 711.173,372.154 709.34,372.988 707.5,373C 708.167,374 708.833,375 709.5,376C 711.869,376.536 713.869,377.703 715.5,379.5C 715.048,383.051 714.048,386.385 712.5,389.5C 714.396,390.9 715.729,392.733 716.5,395C 715.731,400.796 715.231,406.629 715,412.5C 714.878,414.437 714.045,415.77 712.5,416.5 Z"/></g>
<g><path style="opacity:1" fill="#f6f9f9" d="M 696.5,378.5 C 703.414,381.211 708.58,385.878 712,392.5C 712.789,394.712 712.622,396.712 711.5,398.5C 710.772,396.265 709.439,394.432 707.5,393C 697.158,388.724 689.658,391.558 685,401.5C 683.644,408.576 684.644,415.243 688,421.5C 692.221,425.923 697.387,427.59 703.5,426.5C 694.131,432.982 684.464,433.148 674.5,427C 671.882,424.894 669.882,422.394 668.5,419.5C 667.444,415.832 666.278,412.165 665,408.5C 664.274,403.761 664.607,399.095 666,394.5C 669.216,390.559 672.049,386.393 674.5,382C 677.244,381.559 679.244,382.059 680.5,383.5C 680.5,382.167 680.5,380.833 680.5,379.5C 685.797,378.725 691.13,378.392 696.5,378.5 Z"/></g>
<g><path style="opacity:1" fill="#cef9fe" d="M 604.5,385.5 C 600.818,385.335 597.152,385.501 593.5,386C 588.894,388.142 584.227,389.975 579.5,391.5C 586.807,384.948 595.14,382.948 604.5,385.5 Z"/></g>
<g><path style="opacity:1" fill="#f7fafa" d="M 604.5,385.5 C 617.93,387.469 627.096,394.803 632,407.5C 632.78,409.387 632.613,411.054 631.5,412.5C 626.583,403.939 619.25,401.105 609.5,404C 597.627,412.757 595.461,423.591 603,436.5C 609.181,442.838 616.347,444.172 624.5,440.5C 624.938,440.435 625.272,440.601 625.5,441C 613.674,453.452 599.674,456.452 583.5,450C 574.944,445.739 569.611,438.906 567.5,429.5C 567.334,422.492 567.5,415.492 568,408.5C 569.771,404.302 571.604,400.302 573.5,396.5C 574.911,394.086 576.911,392.419 579.5,391.5C 584.227,389.975 588.894,388.142 593.5,386C 597.152,385.501 600.818,385.335 604.5,385.5 Z"/></g>
<g><path style="opacity:1" fill="#d9fbfe" d="M 696.5,378.5 C 691.13,378.392 685.797,378.725 680.5,379.5C 680.5,380.833 680.5,382.167 680.5,383.5C 679.244,382.059 677.244,381.559 674.5,382C 672.049,386.393 669.216,390.559 666,394.5C 664.607,399.095 664.274,403.761 665,408.5C 666.278,412.165 667.444,415.832 668.5,419.5C 661.755,408.18 661.922,396.846 669,385.5C 676.699,376.87 685.866,374.537 696.5,378.5 Z"/></g>
<g><path style="opacity:1" fill="#050607" d="M 711.5,398.5 C 713.044,400.847 713.711,403.514 713.5,406.5C 713.276,409.855 712.943,413.188 712.5,416.5C 710.212,420.456 707.212,423.789 703.5,426.5C 697.387,427.59 692.221,425.923 688,421.5C 684.644,415.243 683.644,408.576 685,401.5C 689.658,391.558 697.158,388.724 707.5,393C 709.439,394.432 710.772,396.265 711.5,398.5 Z"/></g>
<g><path style="opacity:1" fill="#d9fafe" d="M 721.5,359.5 C 722.583,359.539 723.583,359.873 724.5,360.5C 729.365,367.051 733.532,374.051 737,381.5C 741.721,391.494 745.554,401.828 748.5,412.5C 741.367,393.9 732.367,376.234 721.5,359.5 Z"/></g>
<g><path style="opacity:1" fill="#060607" d="M 631.5,412.5 C 634.602,423.307 632.268,432.64 624.5,440.5C 616.347,444.172 609.181,442.838 603,436.5C 595.461,423.591 597.627,412.757 609.5,404C 619.25,401.105 626.583,403.939 631.5,412.5 Z"/></g>
<g><path style="opacity:1" fill="#d8fbfe" d="M 573.5,396.5 C 571.604,400.302 569.771,404.302 568,408.5C 567.5,415.492 567.334,422.492 567.5,429.5C 563.352,417.369 565.352,406.369 573.5,396.5 Z"/></g>
<g><path style="opacity:0.997" fill="#f1f1f1" d="M 792.5,458.5 C 792.5,457.5 792.5,456.5 792.5,455.5C 793.552,455.649 794.552,455.483 795.5,455C 793.538,450.907 791.704,446.741 790,442.5C 788.602,443.051 787.268,443.384 786,443.5C 785.426,445.492 784.259,446.992 782.5,448C 785.742,448.283 786.076,449.117 783.5,450.5C 782.019,448.851 780.352,447.518 778.5,446.5C 790.913,437.595 802.913,428.095 814.5,418C 827.421,414.585 831.588,419.085 827,431.5C 815.379,440.388 803.879,449.388 792.5,458.5 Z"/></g>
<g><path style="opacity:1" fill="#d5fbfe" d="M 753.5,427.5 C 754.117,427.611 754.617,427.944 755,428.5C 756.681,437.595 758.681,446.595 761,455.5C 761.667,459.5 761.667,463.5 761,467.5C 759.539,468.883 758.706,468.549 758.5,466.5C 759.693,466.03 760.36,465.03 760.5,463.5C 758.479,451.42 756.146,439.42 753.5,427.5 Z"/></g>
<g><path style="opacity:0.757" fill="#bab9bc" d="M 846.5,469.5 C 840.828,469.76 835.161,470.093 829.5,470.5C 835.11,468.638 840.777,468.304 846.5,469.5 Z"/></g>
<g><path style="opacity:1" fill="#f4fbfc" d="M 514.5,468.5 C 537.578,473.216 560.578,478.383 583.5,484C 588.446,488.3 588.779,492.967 584.5,498C 582.634,498.985 580.634,499.485 578.5,499.5C 557.795,495.059 537.128,490.559 516.5,486C 506.735,481.042 506.068,475.208 514.5,468.5 Z"/></g>
<g><path style="opacity:1" fill="#c9c9ca" d="M 826.5,470.5 C 818.571,473.554 810.238,474.888 801.5,474.5C 809.62,472.647 817.954,471.314 826.5,470.5 Z"/></g>
<g><path style="opacity:1" fill="#bebebe" d="M 829.5,487.5 C 825.036,488.644 820.37,489.31 815.5,489.5C 819.715,487.564 824.381,486.897 829.5,487.5 Z"/></g>
<g><path style="opacity:1" fill="#85d7f0" d="M 193.5,515.5 C 206.125,522.037 219.625,526.037 234,527.5C 235.592,527.395 237.092,527.061 238.5,526.5C 235.795,546.055 234.795,565.722 235.5,585.5C 234.67,575.675 234.17,565.675 234,555.5C 214.157,554.014 195.657,548.014 178.5,537.5C 142.06,513.989 122.56,480.322 120,436.5C 119.333,426.5 119.333,416.5 120,406.5C 122.357,392.383 125.357,378.383 129,364.5C 136.515,344.104 144.182,323.771 152,303.5C 165.094,268.846 169.094,233.179 164,196.5C 154.026,154.701 129.859,124.201 91.5,105C 148.149,126.698 176.816,168.198 177.5,229.5C 177.064,250.931 173.897,271.931 168,292.5C 158.791,318.463 149.791,344.463 141,370.5C 133.184,400.681 133.85,430.681 143,460.5C 152.472,485.797 169.305,504.13 193.5,515.5 Z"/></g>
<g><path style="opacity:1" fill="#f3fbfc" d="M 506.5,520.5 C 504.765,522.235 503.432,524.235 502.5,526.5C 503.012,528.884 503.679,531.217 504.5,533.5C 507.784,534.657 511.118,534.824 514.5,534C 517.74,532.6 521.073,531.433 524.5,530.5C 524.5,529.167 524.5,527.833 524.5,526.5C 527.01,526.002 529.51,525.336 532,524.5C 533.167,524.833 534.333,525.167 535.5,525.5C 534.315,526.853 532.981,528.02 531.5,529C 540.002,529.872 548.335,529.038 556.5,526.5C 553.841,525.841 552.174,524.174 551.5,521.5C 557.125,520.412 562.792,519.579 568.5,519C 564.617,517.529 560.617,517.362 556.5,518.5C 554.833,518.333 553.167,518.167 551.5,518C 552.167,517.333 552.833,516.667 553.5,516C 547.366,515.1 541.366,515.6 535.5,517.5C 534.41,518.391 534.41,519.391 535.5,520.5C 534.349,521.731 533.183,521.731 532,520.5C 531.653,522.18 530.653,523.18 529,523.5C 526.909,523.421 524.742,523.087 522.5,522.5C 521.148,524.636 519.482,524.97 517.5,523.5C 514.143,525.621 510.81,525.787 507.5,524C 509.49,522.16 509.49,520.993 507.5,520.5C 530.778,515.613 554.278,511.279 578,507.5C 585.792,507.948 589.126,511.948 588,519.5C 586.457,521.378 584.624,522.878 582.5,524C 557.782,527.844 533.115,532.01 508.5,536.5C 503.327,535.866 500.661,532.866 500.5,527.5C 501.108,523.897 503.108,521.564 506.5,520.5 Z"/></g>
<g><path style="opacity:1" fill="#fbfbf9" d="M 506.5,520.5 C 506.833,520.5 507.167,520.5 507.5,520.5C 509.49,520.993 509.49,522.16 507.5,524C 510.81,525.787 514.143,525.621 517.5,523.5C 519.482,524.97 521.148,524.636 522.5,522.5C 524.742,523.087 526.909,523.421 529,523.5C 530.653,523.18 531.653,522.18 532,520.5C 533.183,521.731 534.349,521.731 535.5,520.5C 534.41,519.391 534.41,518.391 535.5,517.5C 541.366,515.6 547.366,515.1 553.5,516C 552.833,516.667 552.167,517.333 551.5,518C 553.167,518.167 554.833,518.333 556.5,518.5C 560.617,517.362 564.617,517.529 568.5,519C 562.792,519.579 557.125,520.412 551.5,521.5C 552.174,524.174 553.841,525.841 556.5,526.5C 548.335,529.038 540.002,529.872 531.5,529C 532.981,528.02 534.315,526.853 535.5,525.5C 534.333,525.167 533.167,524.833 532,524.5C 529.51,525.336 527.01,526.002 524.5,526.5C 524.5,527.833 524.5,529.167 524.5,530.5C 521.073,531.433 517.74,532.6 514.5,534C 511.118,534.824 507.784,534.657 504.5,533.5C 503.679,531.217 503.012,528.884 502.5,526.5C 503.432,524.235 504.765,522.235 506.5,520.5 Z"/></g>
<g><path style="opacity:1" fill="#eafcfd" d="M 254.5,472.5 C 247.012,489.769 241.679,507.769 238.5,526.5C 237.092,527.061 235.592,527.395 234,527.5C 219.625,526.037 206.125,522.037 193.5,515.5C 196.021,515.44 198.354,516.106 200.5,517.5C 203.196,515.56 204.529,516.227 204.5,519.5C 209.627,521.018 214.96,521.851 220.5,522C 219.167,522.667 219.167,523.333 220.5,524C 225.795,525.608 231.129,525.775 236.5,524.5C 235.712,522.671 236.212,521.004 238,519.5C 239.245,513.337 240.911,507.337 243,501.5C 243.47,496.231 244.303,491.064 245.5,486C 245.167,485.667 244.833,485.333 244.5,485C 245.416,484.626 246.25,484.126 247,483.5C 249.535,479.734 252.035,476.067 254.5,472.5 Z"/></g>
<g><path style="opacity:1" fill="#e1fbfe" d="M 178.5,537.5 C 195.657,548.014 214.157,554.014 234,555.5C 234.17,565.675 234.67,575.675 235.5,585.5C 236.585,602.929 238.585,620.262 241.5,637.5C 241.2,640.766 239.867,643.433 237.5,645.5C 238.312,641.724 238.979,637.891 239.5,634C 239.812,629.353 238.646,625.187 236,621.5C 234.169,600.204 233.336,578.871 233.5,557.5C 214.438,555.497 196.438,549.663 179.5,540C 178.748,539.329 178.414,538.496 178.5,537.5 Z"/></g>
<g><path style="opacity:1" fill="#f7fbfb" d="M 548.5,574.5 C 544.435,576.03 540.435,577.863 536.5,580C 531.172,581.175 528.839,579.008 529.5,573.5C 529.319,570.837 529.985,568.503 531.5,566.5C 548.324,555.196 565.324,544.03 582.5,533C 592.662,530.159 596.828,533.992 595,544.5C 580.039,555.393 564.539,565.393 548.5,574.5 Z"/></g>
<g><path style="opacity:0.737" fill="#adaeb1" d="M 210.5,572.5 C 212.144,572.286 213.644,572.62 215,573.5C 215.5,580.826 215.666,588.159 215.5,595.5C 214.816,589.099 214.15,582.599 213.5,576C 213.833,575.667 214.167,575.333 214.5,575C 213.142,574.066 211.808,573.232 210.5,572.5 Z"/></g>
<g><path style="opacity:1" fill="#d1fafe" d="M 689.5,574.5 C 689.389,575.117 689.056,575.617 688.5,576C 673.435,580.651 658.102,583.485 642.5,584.5C 642.611,583.883 642.944,583.383 643.5,583C 659.25,582.118 674.583,579.284 689.5,574.5 Z"/></g>
<g><path style="opacity:1" fill="#d6f9fe" d="M 531.5,566.5 C 529.985,568.503 529.319,570.837 529.5,573.5C 528.839,579.008 531.172,581.175 536.5,580C 540.435,577.863 544.435,576.03 548.5,574.5C 544.296,579.435 538.963,581.935 532.5,582C 526.124,578.458 524.957,573.624 529,567.5C 529.671,566.748 530.504,566.414 531.5,566.5 Z"/></g>
<g><path style="opacity:1" fill="#bfbfbd" d="M 217.5,615.5 C 218.345,617.771 219.345,620.105 220.5,622.5C 219.844,624.453 219.511,626.453 219.5,628.5C 218.105,624.409 217.438,620.076 217.5,615.5 Z"/></g>
<g><path style="opacity:1" fill="#cefcfe" d="M 545.5,623.5 C 535.179,619.815 530.179,623.482 530.5,634.5C 529.362,631.696 529.195,628.696 530,625.5C 534.589,619.629 539.756,618.962 545.5,623.5 Z"/></g>
<g><path style="opacity:1" fill="#40addb" d="M 430.5,671.5 C 433.16,674.133 435.827,676.8 438.5,679.5C 426.96,680.405 415.626,679.738 404.5,677.5C 413.255,677.134 421.922,677.801 430.5,679.5C 431.737,679.444 432.737,678.944 433.5,678C 432.086,676.007 431.086,673.84 430.5,671.5 Z"/></g>
<g><path style="opacity:1" fill="#85d8f1" d="M 194.5,678.5 C 194.351,679.552 194.517,680.552 195,681.5C 202.012,689.689 210.512,695.689 220.5,699.5C 220.5,699.833 220.5,700.167 220.5,700.5C 220.5,700.833 220.5,701.167 220.5,701.5C 217.44,702.914 215.274,705.247 214,708.5C 208.151,724.528 200.984,739.861 192.5,754.5C 184.769,763.577 175.102,766.744 163.5,764C 161.556,761.847 161.056,759.347 162,756.5C 174.11,730.995 184.944,704.995 194.5,678.5 Z"/></g>
<g><path style="opacity:1" fill="#0ca5e9" d="M 382.5,695.5 C 382.918,696.222 383.584,696.722 384.5,697C 392.498,696.865 400.165,698.198 407.5,701C 420.192,701.246 432.858,701.746 445.5,702.5C 446.244,705.95 444.91,707.616 441.5,707.5C 441.5,708.833 441.5,710.167 441.5,711.5C 434.889,718.236 426.889,722.736 417.5,725C 403.443,727.39 389.443,729.89 375.5,732.5C 366.577,730.622 359.077,726.289 353,719.5C 352.503,717.19 352.337,714.857 352.5,712.5C 352.263,711.209 352.596,710.209 353.5,709.5C 354.496,709.586 355.329,709.252 356,708.5C 356.251,706.567 356.751,704.734 357.5,703C 361.681,701.487 365.348,699.154 368.5,696C 373.155,695.501 377.821,695.334 382.5,695.5 Z"/></g>
<g><path style="opacity:1" fill="#31a1d3" d="M 381.5,694.5 C 382.167,694.5 382.5,694.833 382.5,695.5C 377.821,695.334 373.155,695.501 368.5,696C 365.348,699.154 361.681,701.487 357.5,703C 356.751,704.734 356.251,706.567 356,708.5C 355.329,709.252 354.496,709.586 353.5,709.5C 353.995,707.518 354.495,705.518 355,703.5C 360.622,699.018 366.788,695.685 373.5,693.5C 376.176,693.837 378.843,694.17 381.5,694.5 Z"/></g>
<g><path style="opacity:1" fill="#41addf" d="M 308.5,696.5 C 300.132,698.834 291.466,700.001 282.5,700C 261.836,700.5 241.169,700.667 220.5,700.5C 220.5,700.167 220.5,699.833 220.5,699.5C 245.194,699.805 269.861,699.138 294.5,697.5C 297.489,697.338 300.322,696.671 303,695.5C 304.766,696.233 306.599,696.567 308.5,696.5 Z"/></g>
<g><path style="opacity:1" fill="#dafafd" d="M 381.5,694.5 C 378.843,694.17 376.176,693.837 373.5,693.5C 366.788,695.685 360.622,699.018 355,703.5C 354.495,705.518 353.995,707.518 353.5,709.5C 352.596,710.209 352.263,711.209 352.5,712.5C 352.167,712.5 351.833,712.5 351.5,712.5C 351.446,702.892 356.112,697.225 365.5,695.5C 365.354,693.058 366.187,692.391 368,693.5C 372.654,690.891 377.154,691.225 381.5,694.5 Z"/></g>
<g><path style="opacity:1" fill="#c7f6fd" d="M 421.5,699.5 C 431.172,699.334 440.839,699.5 450.5,700C 451.517,701.049 451.684,702.216 451,703.5C 448.91,706.428 446.41,708.761 443.5,710.5C 445.491,707.863 447.491,705.196 449.5,702.5C 440.079,701.059 430.745,700.059 421.5,699.5 Z"/></g>
<g><path style="opacity:1" fill="#d5fbfe" d="M 331.5,691.5 C 330.652,693.093 329.319,694.26 327.5,695C 317.214,697.09 306.88,699.09 296.5,701C 271.169,701.5 245.836,701.667 220.5,701.5C 220.5,701.167 220.5,700.833 220.5,700.5C 241.169,700.667 261.836,700.5 282.5,700C 291.466,700.001 300.132,698.834 308.5,696.5C 316.329,695.626 323.996,693.96 331.5,691.5 Z"/></g>
<g><path style="opacity:1" fill="#2ba3da" d="M 382.5,695.5 C 395.488,696.942 408.488,698.276 421.5,699.5C 430.745,700.059 440.079,701.059 449.5,702.5C 447.491,705.196 445.491,707.863 443.5,710.5C 442.833,710.833 442.167,711.167 441.5,711.5C 441.5,710.167 441.5,708.833 441.5,707.5C 444.91,707.616 446.244,705.95 445.5,702.5C 432.858,701.746 420.192,701.246 407.5,701C 400.165,698.198 392.498,696.865 384.5,697C 383.584,696.722 382.918,696.222 382.5,695.5 Z"/></g>
<g><path style="opacity:1" fill="#84d7f0" d="M 351.5,712.5 C 351.833,712.5 352.167,712.5 352.5,712.5C 352.337,714.857 352.503,717.19 353,719.5C 359.077,726.289 366.577,730.622 375.5,732.5C 373.304,733.854 371.804,735.854 371,738.5C 366.733,752.982 360.733,766.648 353,779.5C 347.217,786.823 339.717,789.656 330.5,788C 329.426,787.261 328.759,786.261 328.5,785C 337.934,761.443 345.601,737.276 351.5,712.5 Z"/></g>
</svg>
