<?xml version="1.0" standalone="no"?><!DOCTYPE svg PUBLIC "-//W3C//DTD SVG 1.1//EN" "http://www.w3.org/Graphics/SVG/1.1/DTD/svg11.dtd"><svg t="1749047652402" class="icon" viewBox="0 0 1024 1024" version="1.1" xmlns="http://www.w3.org/2000/svg" p-id="8235" xmlns:xlink="http://www.w3.org/1999/xlink" width="200" height="200"><path d="M853.333333 512h113.777778v283.761778a170.666667 170.666667 0 0 1-170.666667 170.666666H227.555556a170.666667 170.666667 0 0 1-170.666667-170.666666V512a56.888889 56.888889 0 1 1 113.777778 0v283.761778a56.888889 56.888889 0 0 0 56.888889 56.888889h568.888888a56.888889 56.888889 0 0 0 56.888889-56.888889V512a56.888889 56.888889 0 1 1 113.777778 0 56.888889 56.888889 0 0 1-113.777778 0z m-512 56.888889h341.333334a56.888889 56.888889 0 1 1 0 113.777778H341.333333a56.888889 56.888889 0 1 1 0-113.777778z m-51.2-512h443.733334a68.266667 68.266667 0 0 1 54.613333 27.306667l153.6 204.8A68.266667 68.266667 0 0 1 887.466667 398.222222H136.533333a68.266667 68.266667 0 0 1-54.613333-109.226666l153.6-204.8A68.266667 68.266667 0 0 1 290.133333 56.888889zM227.555556 284.444444h568.888888l-85.333333-113.777777h-398.222222L227.555556 284.444444z" fill="#2c2c2c" p-id="8236"></path></svg>