<?xml version="1.0" standalone="no"?><!DOCTYPE svg PUBLIC "-//W3C//DTD SVG 1.1//EN" "http://www.w3.org/Graphics/SVG/1.1/DTD/svg11.dtd"><svg t="1749047483310" class="icon" viewBox="0 0 1024 1024" version="1.1" xmlns="http://www.w3.org/2000/svg" p-id="4647" xmlns:xlink="http://www.w3.org/1999/xlink" width="200" height="200"><path d="M227.948549 64.008229v96.035748a63.121745 63.121745 0 0 0 63.999451 63.999451H731.971657a63.121745 63.121745 0 0 0 63.999452-63.999451V64.008229h16.018148a123.025231 123.025231 0 0 1 120.0264 120.026399v720.012114a123.025231 123.025231 0 0 1-120.0264 120.0264h-599.766288A123.025231 123.025231 0 0 1 92.19657 904.046742V184.034628A123.025231 123.025231 0 0 1 212.222969 64.008229z m104.008251 360.006057a63.121745 63.121745 0 0 0-63.999451 63.999451 58.513784 58.513784 0 0 0 63.999451 63.999451H691.743431a63.121745 63.121745 0 0 0 63.999451-63.999451 58.513784 58.513784 0 0 0-63.999451-63.999451z m0 279.988457a63.121745 63.121745 0 0 0-63.999451 63.999451 58.513784 58.513784 0 0 0 63.999451 63.999452H691.743431a63.121745 63.121745 0 0 0 63.999451-63.999452 58.513784 58.513784 0 0 0-63.999451-63.999451H331.737373z" fill="#2c2c2c" p-id="4648" data-spm-anchor-id="a313x.search_index.0.i9.553c3a81AIUBgf" class="selected"></path><path d="M332.029942 0.008777h360.006057a63.121745 63.121745 0 0 1 63.999452 63.999452v40.008799a63.121745 63.121745 0 0 1-63.999452 63.999452H332.029942a63.121745 63.121745 0 0 1-63.999451-63.999452V64.008229A63.121745 63.121745 0 0 1 332.029942 0.008777z" fill="#2c2c2c" p-id="4649" data-spm-anchor-id="a313x.search_index.0.i10.553c3a81AIUBgf" class="selected"></path></svg>